<?xml version="1.0" encoding="utf-8"?>
<!-- Generator: Adobe Illustrator 19.0.0, SVG Export Plug-In . SVG Version: 6.00 Build 0)  -->
<svg version="1.1" id="Layer_1" xmlns="http://www.w3.org/2000/svg" xmlns:xlink="http://www.w3.org/1999/xlink" x="0px" y="0px"
	 viewBox="0 0 500 500" style="enable-background:new 0 0 500 500;" xml:space="preserve">
<style type="text/css">
	.st0{fill:#DB0026;}
	.st1{fill:#004526;}
</style>
<g id="g10495">
	<path id="path11407" class="st0" d="M303.1,226c-1.7-2.3-2-6.3-5.5-6.7c-3.4-0.9-6.7-1.9-10.1-2.7c-6.7,1.1-13.3,2.2-20,3.3
		c-0.8,3.6-1.6,7.2-2.3,10.8c10.8,1.4,21.5,2.8,32.3,4.2c2.8,1.9,5.6,3.7,8.4,5.6c7.3,0.8,14.7,1.6,22,2.3c3.4-1.2,6.9-2.5,10.3-3.7
		c-10.7-3.4-21.6-6.2-32-10.5C305,228.1,304.1,227,303.1,226z"/>
	<g id="g10497" transform="matrix(0.986996,0,0,0.986996,1.946671,0.935817)">
		<path id="path10499" class="st1" d="M344.9,240.9c-0.7-1-1.9-1.3-2.7-1.7c-0.8-0.4-0.7-1.2-1.3-1.4c-0.7-0.2-1.9,1.2-2.8,0.9
			c-0.9-0.3-0.9-2-1.6-2.3c-0.8-0.2-2.2,1-2.9,0.8c-0.7-0.2-0.9-2-1.6-2.3c-0.7-0.2-2.2,1.1-2.9,0.9c-0.7-0.2-0.8-2-1.6-2.3
			c-0.8-0.2-2.2,1.1-2.9,0.8c-0.7-0.2-0.8-2-1.5-2.2c-0.8-0.2-2.2,1.1-2.9,0.8c-0.7-0.2-0.9-2.1-1.6-2.3c-0.7-0.2-2,0.9-3.1,0.8
			c-7.5-0.7-10.4-5.4-10.9-4c-0.5,1.4,1.6,4.7,4.2,5.8c2.1,0.9,24.5,7.1,25,7.4c0.6,0.3,2,0.9,1.5,1.7c-0.8,1-3,0-3.5-0.4
			c-0.6-0.5-0.4-0.6-1-0.8c-1.2-0.3-1.9,1.9-3.1,1.6c-1.2-0.3-1.1-2.6-2.2-2.9c-1.3-0.3-1.9,1.9-3.1,1.6c-1-0.2-1.2-2.6-2.3-2.9
			c-1.3-0.3-1.8,1.9-3.1,1.6c-1.1-0.3-1.1-2.6-2.2-2.9c-1.2-0.3-2,1.9-3.1,1.6c-1.1-0.3-1.3-2.6-2.3-2.8c-1-0.2-1.8,1-3.2,1.1
			c0,0-3.9,1.1-10.1-5.4c-6.2-6.5-8.7-7.7-12.3-5.1c-5.8,4.3-9.3,1.5-10.4,0.2c-1.3-1.5,0.1-2.8,0.1-2.8s1.8,2.8,4.1,2.9
			c3.7,0.1,6.5-5,12.9-5c8.1-0.3,10.2,2.6,12.4,2.8c2,0.2,2.7-0.1,4.1-0.9h0c1.1-0.4,2.1,1.8,3.3,1.4c1.3-0.5,0.3-2.7,1.7-3.2
			c1.3-0.5,2.1,1.8,3.3,1.3c1.3-0.5,0.5-2.8,1.7-3.2c1.3-0.5,2,1.8,3.3,1.3c1.3-0.5,0.5-2.7,1.7-3.2c1.2-0.5,2.1,1.8,3.4,1.3
			c1.2-0.4,0.5-2.8,1.7-3.2c1.2-0.4,2.1,1.8,3.4,1.3c1.1-0.4,0.5-2.8,1.6-3.2c1.1-0.4,2.2,1.8,3.4,1.3c1.1-0.4,0.5-2.8,1.6-3.2
			c1.2-0.4,2.2,1.7,3.4,1.3c1.2-0.4,0.3-2.3,1.8-3.1c0,0,2.1-0.7,2-2.2c0-0.3-0.5-3.6-3.9-4.3c-3.3-0.7-29.7,6.6-30,6.2
			c-2.4-4.8-5.5-3.5-6-3.4c-0.5,0.1-3.4,1.4-6.7,0.1c-6.4-2.9-11.5,4.5-15,3.5c-3.2-0.9-5.7-0.4-7,0.1c-1.2,0.4-3.2,2-7.5,0.6
			c-32.9-11.2-58.6-1.4-58.6-1.4c-14.5,4.8-16.3,0-16.3,0s-4.8-6.5,28.8-14.2c48.3-11.1,49.7-29.4,49.1-30.6
			c-0.8-1.7-1.1,0.3-2.7,2.1c-1.3,1.5-2.9,0.8-2.9,0.8c-1.5-0.7-2.5,1-2.5,1s-2,3-3.7,1.3c-1.7-1.7-3.9,2.1-4.7,2.2
			c-1,0.2-1.5-0.3-2.8-0.9c-2-0.9-4.1,2.7-5.2,3c-1.7,0.4-2.8-2-4.3-1c-4.3,3-5,3.4-6.1,2.2c-0.9-0.9-1-1.8-3.8,0.9
			c-2.4,2.3-3.6,2.8-4.6,1.3c-1-1.5-0.7-3.5-4.9,0.5c-2,1.9-3,2-4.2,1.1c-0.9-0.6-0.9-3.7-3.9-0.9c-2.7,2.5-4.7,3.6-5.5,1.4
			c-0.9-2.5-4.1,0.5-4.8,1.2c-0.8,0.7-2.4,2.6-3.6,0.6c-1.2-1.9-3.9,0.9-5.6,2.8c-1.3,1.4-2.3,0.3-3.6-0.6c-1.5-1-6.1,5.3-6.5,5.7
			c-0.4,0.4-0.7,0-1.8-0.9c-1.6-1.4-5.9,6.2-6.6,6.7c0,0-0.3,0.7-1.5-0.5c-1.7-1.6-10.6,10.1-14,23.4c-4.3,17,2.6,30.1,2.6,30.1
			s2.1,0.1,2.9-1.3l1.3-3c1.1-2.5,2.9-1.7,2.9-1.7l-4.2,12.5c-0.7,1.6-0.3,4,1.2,6.2c1.4,2.2,2.3,3.7,3.4,4.7
			c3.4,3.2,3.1-0.6,3.2-1.1c0.4-2,2.7-0.5,4.4,0.5c3.2,1.8,2.9-2.2,3.6-3.5c0.5-0.9,2.1-1,3.8,0.5c1.3,1.1,2.7-2.7,2.7-2.7
			c1.7-8-2.2-9-4.4-9.1l-4.3-0.2c0,0,0.3-1.2,0.7-2.4l0.2-0.8c4.7-11.6-3.1-13.9-5.5-13.7c-2.6,0.2-2.4-1.4-2.4-1.4
			s14.1-2.8,11.5,12.2c0,0-0.5,2.6-0.8,4l3.9,0.5c3.3,0.4,3.9,4.4,3.9,4.4s12.3,3.2,19.2,1.9c0,0,3.1-0.7,4-2.7
			c0,0,4.5-10.6,17.7-11.1c0,0,0.5,1.4-1.6,2.1c-2.5,0.8-10.9,1.5-12.7,11.2v0c-0.2,1.6,0.2,5,3.7,6.5c2.9,1.3,4,6.6,4.6,8.1
			c1.7,4.1,4.3,0.2,4.3,0.2s1.6-3.3,3-1.5c2.3,3.1,3.4,1.5,4-0.4c0.6-2.1,1.4-3,3.9-0.5c1,1.1,3.1,0.3,3.3-1.7
			c0.4-4.2,3.3-0.9,3.7-0.7c0.5,0.2,3.5-0.5,1.8-5.2c0,0-2.3-4.5-12.4-6.5c-2.4-0.5-2-2.2-2-2.2l2.2,0.3c0.7,0.1,6.6,0.8,7.2,0.9
			c24.8,2.4,43.6-6,44.1-6.6c19.2,3.7,45.4,2.4,50.3,0.7C345.1,244.5,345.5,241.7,344.9,240.9z M305.2,210.2c0.4-0.6,0.8-1,1.1-1.2
			c1.5-0.8,2.4,1.8,2.3,1.9c0,0,0,0-0.1,0c0,0,0,0,0,0c-0.2,0.1-3.1,0.9-3.4,0.7C304.5,211.3,305.2,210.2,305.2,210.2z M294.2,211
			c0,0,0.4-0.5,1.1-0.7c0.7-0.3,1.8-0.3,3.2,0.6c1.6,1,1.6,1.9,1.6,1.9c-0.1,0-0.1,0.1-0.2,0.1c-1.2,0.5-6,1.1-6,1.1
			C292.9,212.2,294.2,211,294.2,211z M203.5,187.5c0.8,0.6,0,4.3-0.5,3.7l-4.2-2.2C198.8,189,202.7,186.9,203.5,187.5z M196.7,189.8
			c0.8,0.6,0.1,4.3-0.5,3.7l-4.2-2.2C192,191.3,195.9,189.2,196.7,189.8z M194.4,196.9c0.8,0.6,0.1,4.3-0.5,3.7l-4.2-2.3
			C189.6,198.4,193.5,196.3,194.4,196.9z M190.4,206.4l-4.2-2.2c0,0,3.9-2.1,4.7-1.5C191.7,203.3,190.9,207,190.4,206.4z
			 M189.6,213.6l-4.2-2.2c0,0,3.9-2.1,4.7-1.5C190.9,210.5,190.2,214.1,189.6,213.6z M189.5,192.3c0.8,0.6,0,4.2-0.5,3.7l-4.2-2.2
			C184.8,193.8,188.7,191.7,189.5,192.3z M185.8,197.9c0.8,0.6,0,4.2-0.5,3.7l-4.2-2.2C181.1,199.4,185,197.2,185.8,197.9z
			 M178.4,206.5c0,0,3.9-2.1,4.7-1.5c0.8,0.6,0,4.2-0.5,3.7L178.4,206.5z M181.6,215.6l-4.2-2.2c0,0,3.9-2.1,4.7-1.5
			C183,212.5,182.2,216.1,181.6,215.6z M178.6,200.4c0.8,0.6,0,4.2-0.5,3.7l-4.2-2.2C173.9,201.9,177.8,199.8,178.6,200.4z
			 M174.8,207.7c0.8,0.6,0.1,4.3-0.5,3.7l-4.2-2.2C170.1,209.2,174,207.1,174.8,207.7z M169.3,216.4c0,0,3.9-2.1,4.7-1.5
			c0.8,0.6,0,4.2-0.5,3.7L169.3,216.4z M176.8,224.6l-4.2-2.2c0,0,3.9-2.1,4.7-1.5C178.2,221.5,177.4,225.1,176.8,224.6z
			 M182.8,229.4l-4.2-2.2c0,0,3.9-2.1,4.7-1.5C184.2,226.3,183.4,230,182.8,229.4z M184.7,221.8l-4.2-2.2c0,0,3.9-2.1,4.7-1.5
			C186,218.7,185.3,222.3,184.7,221.8z M190.3,232.7l-4.2-2.2c0,0,3.9-2.1,4.7-1.5C191.6,229.6,190.8,233.2,190.3,232.7z
			 M192.3,225.7l-4.2-2.2c0,0,3.9-2.1,4.7-1.5C193.6,222.6,192.9,226.2,192.3,225.7z M193.7,219.1l-4.2-2.2c0,0,3.9-2.1,4.7-1.5
			C195,216,194.2,219.6,193.7,219.1z M199.5,231.9l-4.2-2.2c0,0,3.9-2.1,4.7-1.5C200.9,228.7,200.1,232.4,199.5,231.9z M201.4,224.9
			l-4.2-2.2c0,0,3.9-2.1,4.7-1.5C202.7,221.8,201.9,225.4,201.4,224.9z M202.9,217.5l-4.2-2.2c0,0,3.9-2.1,4.7-1.5
			C204.2,214.4,203.5,218,202.9,217.5z M208.8,230.6l-4.2-2.2c0,0,3.9-2.1,4.7-1.5C210.1,227.5,209.3,231.1,208.8,230.6z
			 M210.2,223.1l-4.2-2.2c0,0,3.9-2.1,4.7-1.5C211.5,220,210.8,223.6,210.2,223.1z M211.6,215.4l-4.2-2.2c0,0,3.9-2.1,4.7-1.5
			C213,212.3,212.2,216,211.6,215.4z M217.9,227.6l-4.2-2.2c0,0,3.9-2.1,4.7-1.5C219.3,224.5,218.5,228.1,217.9,227.6z M219.1,220.3
			l-4.2-2.2c0,0,3.9-2.1,4.7-1.5C220.5,217.2,219.7,220.8,219.1,220.3z M220.5,213.1l-4.2-2.2c0,0,3.9-2.1,4.7-1.5
			C221.9,210,221.1,213.6,220.5,213.1z M227,226.1l-4.2-2.2c0,0,3.9-2.1,4.7-1.5C228.3,222.9,227.5,226.6,227,226.1z M228.1,219.2
			l-4.2-2.2c0,0,3.9-2.1,4.7-1.5C229.5,216.1,228.7,219.7,228.1,219.2z M229.5,211.9l-4.2-2.2c0,0,3.9-2.1,4.7-1.5
			C230.8,208.8,230.1,212.4,229.5,211.9z M235.3,226.2l-4.2-2.2c0,0,3.9-2.1,4.7-1.5C236.7,223.1,235.9,226.7,235.3,226.2z
			 M236.7,218.8l-4.2-2.2c0,0,3.9-2.1,4.7-1.5C238,215.7,237.2,219.3,236.7,218.8z M238.2,211.5l-4.2-2.2c0,0,3.9-2.1,4.7-1.5
			C239.6,208.4,238.8,212,238.2,211.5z M244,226.2l-4.2-2.2c0,0,3.9-2.1,4.7-1.5C245.4,223.1,244.6,226.7,244,226.2z M245.4,219.2
			l-4.2-2.2c0,0,3.9-2.1,4.7-1.5C246.7,216.1,245.9,219.8,245.4,219.2z M246.9,212.1l-4.2-2.2c0,0,3.9-2.1,4.7-1.5
			C248.3,209,247.5,212.6,246.9,212.1z M252.2,227.2L248,225c0,0,3.9-2.1,4.7-1.5C253.6,224.1,252.8,227.7,252.2,227.2z
			 M253.7,220.5l-4.2-2.2c0,0,3.9-2.1,4.7-1.5C255.1,217.4,254.3,221,253.7,220.5z M255.3,213.6l-4.2-2.2c0,0,3.9-2.1,4.7-1.5
			C256.7,210.5,255.9,214.1,255.3,213.6z M261.8,221.9l-4.2-2.2c0,0,3.9-2.1,4.7-1.5C263.2,218.8,262.4,222.5,261.8,221.9z"/>
	</g>
	<g id="g10501" transform="matrix(0.986996,0,0,0.986996,1.946671,0.935817)">
		<path id="path10503" d="M151.7,285.5c-0.9-2.3-2.5-3.3-5.6-3.4c-0.3,0-14.4,0-14.4,0l-20.9,56.8c0,0,10.1,0,10.2,0
			c0.9,0.1,1.7-0.1,2.4-0.4c2-0.9,2.9-3.2,3.2-4c0,0,2.8-7.9,3-8.4c1.5,0,19.9,0,21,0c0.4,1.3,4.3,12.8,4.3,12.8h13.7l-8.7-27.6
			L151.7,285.5 M147.5,314.4c-2.1,0-13.3,0-14.1,0c1.5-4.2,5.3-14.7,6.9-19C141.7,299.7,147.4,314.3,147.5,314.4z"/>
		<path id="path10505" d="M250.6,281.6L250.6,281.6L250.6,281.6c-16.3,0-28,12.2-28,29c0,16.4,12,28.8,28,28.8
			c16,0,28.5-12.7,28.5-28.8C279.1,294.4,266.6,281.6,250.6,281.6 M251,326.8c-8.3,0-14.8-7.2-14.8-16.3c0-9.1,6.4-15.9,14.8-15.9
			c8.4,0,14.4,6.7,14.4,15.9C265.4,319.8,259.2,326.8,251,326.8z"/>
		<path id="path10507" d="M315.9,305.5l-0.5-0.2c0,0-5.3-1.6-5.3-1.6l-0.8-0.3c-4.3-1.6-7.4-2.9-7.4-5.4c0-0.1,0-0.1,0-0.2
			c0.4-4.2,8.2-4.2,8.3-4.2c4.3,0,7.6,0.7,11.7,2.3l0.1,0l0.2,0.1c1,0.2,1.8,0.2,2.5,0.1l1.2-0.4c1.7-0.9,3.3-5.7,3.9-7.8l0.2-0.7
			l-0.5-0.5c-0.2-0.2-1.4-1.2-5.8-2.8c-4.5-1.7-10.9-1.9-10.9-1.9l-3.1,0c-16.4,0-22.7,10.1-22.9,16.9c-0.1,6.8,3.7,10.3,9.5,13.4
			c2.4,1.3,6.9,2.6,10.1,3.5c0,0,3.3,1,3.3,1c6.1,1.9,8.4,4,8,7.4c-0.2,1.1-2.3,2.9-6.9,2.9c-3.6,0-6.8-0.5-10.1-1.7
			c-1.6-0.6-3.3-1.5-5-2.5l-0.1-0.1l-0.2-0.1c-1-0.4-1.8-0.5-2.6-0.5l-1.3,0.3c-1.9,0.7-4.5,5.5-5.5,7.5l-0.4,0.8l0.7,0.6
			c0.1,0.1,3,2.4,5.5,3.8c2.9,1.6,6.2,2.8,10,3.6c1.6,0.3,4,0.6,7.9,0.6c12.7,0,21.9-6.4,23-16C333.1,314.8,327.8,309.1,315.9,305.5
			z"/>
		<path id="path10509" d="M343,282.2c-0.5,0-3.3,0-4.9,1.5c-0.7,0.7-1.1,1.6-1.1,2.6l0,9c0,0,15.3,0,17.3,0c0,2.1,0,43.7,0,43.7
			l14.2,0c0,0,0-41.5,0-43.6c1.9,0,11.2,0,11.2,0c0.5,0,3.3-0.1,4.9-1.5c0.7-0.7,1.1-1.6,1.1-2.6v-9H343L343,282.2z"/>
		<path id="path10511" d="M99.5,326.1c0,0-11.9,0-15.9,0c0-2.1,0-38.7,0-38.7c0-1.6-0.5-2.9-1.4-3.8c-1.5-1.4-3.8-1.4-4.7-1.4
			l-8.4,0l0,56.8h35.5l0-9C104.5,328.7,104,326.1,99.5,326.1z"/>
		<path id="path10513" d="M201.1,294.2c3.4-0.2,6.3,0,9.1,0.7c1.5,0.5,2.8,0.6,3.9,0.3c0,0,1.1-0.5,1.1-0.5c1.6-1,2.7-6,3.3-8.8
			l0.1-0.7l-0.6-0.4c-0.1-0.1-0.6-0.4-5.7-1.8c-4.7-1.3-8.9-1.4-10.9-1.4l-0.2,0c-11.8,0-29.5,7.8-30,29.1v0.1
			c0.5,21.4,18.2,29.1,30,29.1l0.2,0c2.1,0,6.2-0.2,10.9-1.4c5.1-1.4,5.6-1.7,5.7-1.8l0.6-0.4l-0.1-0.7c-0.5-2.9-1.7-7.9-3.3-8.9v0
			l0,0l0,0l-1.1-0.5c-1.1-0.3-2.5-0.2-3.9,0.3c-2.7,0.7-5.6,1-9.1,0.7c-8.9-0.9-14.3-6.9-14.7-16.6
			C186.8,301.2,192.1,295.1,201.1,294.2z"/>
		<path id="path10515" d="M427.8,338.9c2.2,0,5.9-1.3,5.9-5.7l0-7.1l-25,0c0,0,0-8.2,0-9.5c2.1,0,20.7,0,20.7,0l0-13.1
			c0,0-18.5,0-20.6,0c0-1.6,0-6.6,0-8.2c2,0,19,0,19,0c0.5,0,3.4,0,4.9-1.5c1.1-1.1,1.1-3,1.1-4v-7.5h-39.4l0,56.7L427.8,338.9z"/>
	</g>
</g>
</svg>
