<?xml version="1.0" encoding="utf-8"?>
<!-- Generator: Adobe Illustrator 19.0.0, SVG Export Plug-In . SVG Version: 6.00 Build 0)  -->
<svg version="1.1" id="Layer_1" xmlns="http://www.w3.org/2000/svg" xmlns:xlink="http://www.w3.org/1999/xlink" x="0px" y="0px"
	 viewBox="0 0 500 500" style="enable-background:new 0 0 500 500;" xml:space="preserve">
<g id="XMLID_1_">
	<path id="XMLID_3_" d="M67.5,289.2c0.1,0,0-78.2,0-78.2h17.3l29.9,41.2l29.9-41.2h17.5c0,0-0.1,78.2,0,78.2h-18.2l0-44l-29.1,40.1
		l-29.1-40.1l0,44H67.5z"/>
	<polygon id="XMLID_4_" points="348.5,211 378.3,248.3 345.8,289.2 371,289.2 389.1,265 407.3,289.2 432.5,289.2 400.5,248.3 
		429.8,211 404.7,211 389.1,231.6 373.6,211 	"/>
	<path id="XMLID_5_" d="M218.5,208c-13.3-0.3-26.6,5.8-34.9,17.6c-13.2,18.8-8.9,45.1,9.5,58.6c18.5,13.5,44.6,9.1,57.8-9.8
		l-14.6-10.2c-7.7,11-22.1,13.4-32.7,5.6c-10.7-7.8-13.2-23.1-5.5-34.1c7.7-11,22.1-13.4,32.7-5.6c1.4,1,2.6,2.1,3.7,3.4l13.3-11.8
		c-2-2.2-4.1-4.2-6.5-5.9C234.5,210.8,226.5,208.2,218.5,208z"/>
	<path id="XMLID_6_" d="M201.1,251.9h57.1c0.4-9.3-1.2-16.9-4.7-22.9l-53.4,19.3c-1,0.3-1.3,1-1.3,1.8
		C198.8,251,199.6,251.9,201.1,251.9z"/>
	<polygon id="XMLID_7_" points="259.9,211 289.8,248.3 257.2,289.2 282.4,289.2 300.6,265 318.8,289.2 343.9,289.2 311.9,248.3 
		341.3,211 316.1,211 300.6,231.6 285.1,211 	"/>
</g>
</svg>
