<svg xmlns="http://www.w3.org/2000/svg" viewBox="0 0 448.79 518.91"><defs><style>.cls-1{fill:#1d1d1b;}</style></defs><g id="Слой_2" data-name="Слой 2"><g id="Слой_2-2" data-name="Слой 2"><path class="cls-1" d="M.71,6.67c.47,4.94,2.6,7.17,9.68,9.64,22.9,8.4,28.33,18,60.91,105.26l26.44,71.17h67.52l-6.61-19.28c-3.78-10.37-14.88-41.51-24.79-68.94C113.79,48.93,112.14,37.07,121.35,26c4.25-5.44,8.49-7.17,23.6-9.39,17.71-2.72,18.18-3,18.18-9.64V0H0Z"/><path class="cls-1" d="M318.24,1.73c-.95.74-1.66,4-1.66,7.17,0,4.69,1.66,5.43,15.11,7.16,17.71,2,33.29,9.39,40.14,19.28,4,5.68,5,10.62,5,24.71-.24,20-5,36.81-27.15,96.12l-13.7,36.57h7.79c4.25,0,8.27-1.48,9-3.21.71-1.49,10.39-27.93,21.72-58.57,11.1-30.64,23.85-62.76,27.86-71.41,9-19,23.14-34.84,36.59-41,8.27-4,9.92-5.93,9.92-11.61V0H384.34C348.69,0,319,.74,318.24,1.73Z"/><path class="cls-1" d="M153.69,340.75c0,2,53.12,146.78,62.09,168.77,2.59,6.67,5.19,9.39,8.73,9.39,6.14,0,7.32-2.47,43.68-101.31,15.11-41.51,28.09-76.11,28.8-77.34.47-1-2.6-1.73-6.85-1.73h-7.79l-15.34,41c-8.5,22.48-16.29,41-17.47,41-1.18-.25-8.5-18.29-16.53-40.53l-14.4-40.28L186,339C166.91,338.78,153.69,339.27,153.69,340.75Z"/><polygon class="cls-1" points="335.94 192.74 282.35 338.53 296.99 340.26 352.7 189.53 335.94 192.74"/><path class="cls-1" d="M96.79,190.91h68l53.82,148.85-64.92,1Q125.24,265.84,96.79,190.91Z"/></g></g></svg>