<?xml version="1.0" standalone="no"?>
<!DOCTYPE svg PUBLIC "-//W3C//DTD SVG 20010904//EN"
 "http://www.w3.org/TR/2001/REC-SVG-20010904/DTD/svg10.dtd">
<svg version="1.0" xmlns="http://www.w3.org/2000/svg"
 width="199.000000pt" height="219.000000pt" viewBox="0 0 199.000000 219.000000"
 preserveAspectRatio="xMidYMid meet">

<g transform="translate(0.000000,219.000000) scale(0.100000,-0.100000)"
fill="#000000" stroke="none">
<path d="M32 2113 c2 -20 11 -29 41 -39 97 -34 120 -73 258 -426 l112 -288
143 0 143 0 -28 78 c-16 42 -63 168 -105 279 -85 225 -92 273 -53 318 18 22
36 29 100 38 75 11 77 12 77 39 l0 28 -346 0 -345 0 3 -27z"/>
<path d="M1377 2133 c-4 -3 -7 -16 -7 -29 0 -19 7 -22 64 -29 75 -8 141 -38
170 -78 17 -23 21 -43 21 -100 -1 -81 -21 -149 -115 -389 l-58 -148 33 0 c18
0 35 6 38 13 3 6 44 113 92 237 47 124 101 254 118 289 38 77 98 141 155 166
35 16 42 24 42 47 l0 28 -273 0 c-151 0 -277 -3 -280 -7z"/>
<path d="M474 1163 c51 -137 81 -203 94 -201 12 2 92 185 92 211 0 14 -21 7
-26 -10 -22 -66 -58 -153 -64 -153 -4 0 -22 38 -39 85 -21 56 -38 85 -48 85
-10 0 -13 -6 -9 -17z"/>
<path d="M770 1070 l0 -110 76 0 c47 0 73 4 69 10 -3 6 -31 10 -61 10 l-54 0
0 40 0 40 49 0 c28 0 53 5 56 10 4 6 -15 10 -49 10 l-56 0 0 40 0 40 55 0 c30
0 55 5 55 10 0 6 -30 10 -70 10 l-70 0 0 -110z"/>
<path d="M1085 1171 c-81 -35 -85 -168 -6 -201 37 -15 93 -6 112 17 12 15 12
16 -6 8 -81 -34 -130 -6 -130 75 0 77 58 117 107 73 13 -11 22 -13 29 -6 24
24 -64 52 -106 34z"/>
<path d="M1351 1167 c-33 -20 -50 -55 -51 -105 0 -81 85 -130 149 -86 53 38
62 131 16 174 -28 26 -83 35 -114 17z m79 -17 c39 -21 44 -114 9 -156 -17 -21
-65 -17 -89 8 -32 35 -24 125 14 150 16 11 44 10 66 -2z"/>
<path d="M680 761 c0 -8 225 -594 263 -683 11 -27 22 -38 37 -38 26 0 31 10
185 410 64 168 119 308 122 313 2 4 -11 7 -29 7 l-33 0 -65 -166 c-36 -91 -69
-166 -74 -166 -5 1 -36 74 -70 164 l-61 163 -138 3 c-81 1 -137 -1 -137 -7z"/>
</g>
</svg>
