<?xml version="1.0" standalone="no"?>
<!DOCTYPE svg PUBLIC "-//W3C//DTD SVG 20010904//EN"
 "http://www.w3.org/TR/2001/REC-SVG-20010904/DTD/svg10.dtd">
<svg version="1.0" xmlns="http://www.w3.org/2000/svg"
 width="203.000000pt" height="225.000000pt" viewBox="0 0 203.000000 225.000000"
 preserveAspectRatio="xMidYMid meet">

<g transform="translate(0.000000,225.000000) scale(0.100000,-0.100000)"
fill="#000000" stroke="none">
<path d="M0 1125 l0 -1125 1015 0 1015 0 0 1125 0 1125 -1015 0 -1015 0 0
-1125z m750 1027 c0 -27 -2 -28 -77 -39 -64 -9 -82 -16 -100 -38 -42 -48 -33
-92 81 -395 69 -181 100 -277 93 -280 -7 -3 -71 -4 -143 -2 l-131 3 -63 162
c-137 352 -170 430 -202 473 -32 42 -97 84 -131 84 -12 0 -17 9 -17 30 l0 30
345 0 345 0 0 -28z m1210 -1 c0 -20 -6 -32 -18 -35 -10 -4 -39 -19 -63 -35
-81 -51 -108 -104 -283 -558 -48 -123 -48 -123 -81 -123 l-33 0 58 148 c93
237 113 306 114 386 0 60 -3 77 -23 105 -30 41 -87 67 -168 77 -56 6 -63 9
-63 29 0 12 3 25 7 28 3 4 129 7 280 7 l273 0 0 -29z m-1396 -1013 c16 -43 33
-78 37 -78 4 0 20 36 36 80 15 44 34 80 41 80 18 0 15 -16 -25 -123 -55 -142
-57 -141 -154 101 -8 21 -6 23 13 20 18 -2 29 -19 52 -80z m386 72 c0 -6 -27
-10 -60 -10 l-60 0 0 -40 0 -40 55 0 c30 0 55 -4 55 -10 0 -5 -25 -10 -55 -10
l-55 0 0 -40 0 -40 60 0 c33 0 60 -4 60 -10 0 -6 -32 -10 -75 -10 l-75 0 0 94
c0 52 -3 101 -6 110 -5 14 5 16 75 16 47 0 81 -4 81 -10z m254 0 c14 -5 26
-16 26 -25 0 -19 -19 -19 -44 0 -27 21 -46 19 -73 -7 -31 -29 -33 -108 -3
-138 22 -22 60 -26 92 -9 27 14 36 2 12 -16 -10 -8 -38 -15 -62 -15 -35 0 -49
6 -73 29 -24 25 -29 38 -29 78 0 73 34 111 102 112 15 1 38 -3 52 -9z m277 0
c25 -14 49 -62 49 -100 0 -38 -24 -86 -49 -100 -29 -15 -93 -12 -118 5 -28 20
-47 78 -39 120 13 66 98 106 157 75z m-436 -567 c33 -89 65 -163 71 -163 6 0
40 74 75 165 l64 165 33 0 c18 0 31 -3 29 -7 -3 -5 -62 -156 -132 -338 -151
-391 -149 -387 -178 -383 -18 2 -34 36 -100 203 -43 110 -105 268 -137 352
-33 84 -60 157 -60 163 0 7 44 10 137 8 l138 -3 60 -162z"/>
<path d="M1390 1182 c-41 -33 -34 -127 11 -155 64 -40 120 81 68 147 -24 30
-48 33 -79 8z"/>
</g>
</svg>
